<svg width="239" height="74" viewBox="0 0 239 74" fill="none" xmlns="http://www.w3.org/2000/svg">
<path d="M79.7998 14H22C19.9538 14 18.1877 14.6811 16.624 16.1172L16.3145 16.4141C14.7561 17.9725 14 19.7973 14 22C14 24.1933 14.7508 26.0561 16.3145 27.6846C17.9432 29.2487 19.8063 30 22 30H62.7998C66.8702 30.0001 70.597 30.9863 73.9287 32.9854L74.5381 33.3633C76.8589 34.8546 78.8355 36.7133 80.4648 38.9258V0H94.4648V74H80.4648V65.1348C78.8333 67.3125 76.8561 69.1507 74.5371 70.6377L73.9287 71.0146C70.597 73.0137 66.8702 73.9999 62.7998 74H0V60H62.7998C65.0801 59.9999 66.9308 59.2349 68.4775 57.6914C70.046 56.0611 70.7998 54.1966 70.7998 52C70.7998 49.7974 70.0436 47.9724 68.4854 46.4141L68.4736 46.4023L68.4619 46.3896C66.9083 44.7826 65.0614 44.0001 62.7998 44H22C17.9891 44 14.2711 43.0103 10.8877 41.0244L10.8789 41.0195L10.8711 41.0146C7.79474 39.1688 5.28618 36.7369 3.3623 33.7363L2.98535 33.1289L2.98047 33.1211L2.97559 33.1123C0.989623 29.7288 0 26.011 0 22C6.27335e-07 17.989 0.989712 14.2968 2.98535 10.9707C4.95084 7.62828 7.58479 4.95716 10.8711 2.98535L10.8789 2.98047L10.8877 2.97559C14.2711 0.989729 17.9891 3.1359e-07 22 0H79.7998V14ZM167.824 0.608398L235.624 70.6084L238.909 74H220.242L219.653 73.3936L193.689 46.6719L167.824 73.3906L167.235 74H144.365V44H95.4648V30H144.365V0H167.234L167.824 0.608398ZM63.4912 71.9893H63.4961C63.7106 71.9827 63.9238 71.9726 64.1357 71.96C63.9222 71.9727 63.7073 71.9825 63.4912 71.9893ZM72.8994 69.2998C72.5361 69.5178 72.167 69.7215 71.793 69.9131C71.9739 69.8204 72.1546 69.7258 72.333 69.627L72.9004 69.2998C73.084 69.1896 73.2643 69.0756 73.4434 68.9609C73.2641 69.0757 73.0832 69.1895 72.8994 69.2998ZM156.364 68.8223L156.365 68.8213V5.17773L156.364 5.17676V68.8223ZM158.365 63.8818L184.402 37L158.365 10.1172V63.8818ZM79.4053 63.1826C79.524 63.0089 79.6416 62.8335 79.7559 62.6553L79.7598 62.6484C79.644 62.8289 79.5254 63.0067 79.4053 63.1826ZM80.0996 42L79.7764 41.4678C79.7755 41.4664 79.7743 41.4652 79.7734 41.4639C79.8839 41.6406 79.9933 41.8189 80.0996 42ZM235.622 3.39355L205.122 34.7939L203.687 36.2715L202.252 34.793L195.752 28.0928L194.402 26.7021L195.75 25.3096L219.65 0.609375L220.239 0H238.918L235.622 3.39355ZM72.8994 34.7002C73.2659 34.9201 73.6231 35.1499 73.9717 35.3887C73.8015 35.2721 73.6296 35.157 73.4551 35.0449L72.9004 34.7002C72.7219 34.5931 72.5415 34.4894 72.3604 34.3887C72.5413 34.4893 72.721 34.5932 72.8994 34.7002ZM63.4951 32.0107C63.7112 32.0173 63.9261 32.0273 64.1396 32.04C63.9264 32.0273 63.7119 32.0173 63.4961 32.0107L62.7998 32L63.4951 32.0107ZM21.4912 31.9883L22 32L21.4922 31.9883C21.4809 31.9878 21.4693 31.9859 21.458 31.9854C21.4691 31.9859 21.4801 31.9878 21.4912 31.9883ZM14.8994 29.0996C14.9232 29.1226 14.9488 29.1443 14.9727 29.167L14.9004 29.0996C14.8337 29.0306 14.7695 28.9595 14.7051 28.8896C14.7694 28.9594 14.8328 29.0307 14.8994 29.0996ZM12 22C12 22.1397 12.0033 22.2783 12.0088 22.416L12 22ZM15.4434 14.4922C15.2598 14.6542 15.0772 14.8222 14.8994 15C14.7926 15.1068 14.6898 15.2159 14.5889 15.3252L14.9004 15C15.0781 14.8223 15.2599 14.6541 15.4434 14.4922ZM21.4912 12.0117C21.4779 12.0123 21.4645 12.013 21.4512 12.0137C21.4647 12.013 21.4786 12.0123 21.4922 12.0117L22 12L21.4912 12.0117Z" fill="url(#paint0_linear_97_12)"/>
<defs>
<linearGradient id="paint0_linear_97_12" x1="123.6" y1="-12.5" x2="130.6" y2="76.5" gradientUnits="userSpaceOnUse">
<stop stop-color="#07CCE6"/>
<stop offset="1" stop-color="#1184FF"/>
</linearGradient>
</defs>
</svg>
